<svg xmlns="http://www.w3.org/2000/svg" fill="none" viewBox="0 0 64 64" id="Vitest--Streamline-Svg-Logos" height="64" width="64">
  <desc>
    Vitest Streamline Icon: https://streamlinehq.com
  </desc>
  <path fill="#fcc72b" d="M47.6944 20.749333333333333 32.712999999999994 42.410399999999996c-0.1588 0.22966666666666663 -0.3885333333333333 0.40173333333333333 -0.6542666666666667 0.49 -0.2657333333333333 0.08833333333333333 -0.5529999999999999 0.08746666666666666 -0.8182 -0.0012 -0.26513333333333333 -0.08913333333333334 -0.4938 -0.26206666666666667 -0.6512666666666667 -0.4921333333333333 -0.15739999999999998 -0.23046666666666665 -0.23506666666666667 -0.5057333333333334 -0.221 -0.7839333333333333l0.5995333333333333 -11.959133333333334 -9.679533333333332 -2.0528666666666666c-0.20686666666666667 -0.04379999999999999 -0.3996 -0.13779999999999998 -0.5611999999999999 -0.2735333333333333 -0.1615333333333333 -0.13573333333333332 -0.2869333333333333 -0.3091333333333333 -0.36506666666666665 -0.5047333333333333 -0.07806666666666666 -0.19566666666666666 -0.10646666666666667 -0.40746666666666664 -0.08266666666666667 -0.6168 0.0238 -0.20926666666666666 0.09899999999999999 -0.40959999999999996 0.21906666666666666 -0.5831333333333333L35.48 3.97178c0.15886666666666666 -0.22979333333333332 0.3885333333333333 -0.4017933333333333 0.6542666666666667 -0.48997333333333326 0.2658 -0.08817333333333333 0.5530666666666666 -0.08771999999999999 0.8182666666666667 0.0013666666666666666 0.2652 0.08905333333333333 0.4938666666666667 0.26183999999999996 0.6512666666666667 0.49216666666666664 0.15739999999999998 0.23029333333333335 0.23506666666666667 0.50552 0.221 0.78394l-0.5995999999999999 11.95932 9.679466666666666 2.0526c0.20686666666666667 0.043866666666666665 0.3996 0.13779999999999998 0.5613333333333332 0.2735333333333333 0.16166666666666665 0.13579999999999998 0.28686666666666666 0.3091333333333333 0.3648 0.5047999999999999 0.07833333333333332 0.1956 0.10653333333333333 0.40746666666666664 0.08293333333333333 0.6167333333333334 -0.023666666666666662 0.20933333333333332 -0.09913333333333332 0.40946666666666665 -0.21933333333333332 0.5830666666666666Z" stroke-width="0.6667"></path>
  <path fill="#729b1b" d="M32.005799999999994 60.583466666666666c-0.39846666666666664 0.00039999999999999996 -0.7930666666666666 -0.07753333333333333 -1.1612 -0.23013333333333333 -0.3681333333333333 -0.15253333333333333 -0.7025333333333333 -0.37639999999999996 -0.9838666666666667 -0.6583333333333333L15.704933333333333 45.54026666666667c-0.5662666666666667 -0.5691999999999999 -0.8836666666666666 -1.3398666666666665 -0.8826666666666667 -2.1428666666666665 0.0010666666666666667 -0.8029999999999999 0.32053333333333334 -1.5732666666666666 0.8884 -2.1407999999999996 0.5678 -0.5679333333333333 1.3377333333333334 -0.8876 2.1407333333333334 -0.8887999999999999 0.8031333333333334 -0.0008666666666666666 1.5738666666666665 0.3163333333333333 2.1432666666666664 0.8826l12.011133333333333 12.0098 26.166466666666665 -26.165133333333333c0.5704 -0.5612666666666666 1.3394 -0.8743333333333334 2.139533333333333 -0.8710666666666667 0.8005333333333333 0.0032666666666666664 1.5669999999999997 0.3226 2.1324666666666667 0.8884 0.5658666666666666 0.5658666666666666 0.8855333333333333 1.3323999999999998 0.8888666666666666 2.1326 0.0028666666666666667 0.8001999999999999 -0.3101333333333333 1.5693333333333332 -0.8714666666666666 2.139733333333333L34.1504 59.695c-0.2813333333333333 0.2823333333333333 -0.6156666666666666 0.5058 -0.9836666666666667 0.6583333333333333 -0.368 0.15259999999999999 -0.7625333333333333 0.2305333333333333 -1.1609333333333334 0.23013333333333333Z" stroke-width="0.6667"></path>
  <path fill="#729b1b" fill-opacity=".5" d="M31.993799999999997 60.583466666666666c0.39846666666666664 0.00039999999999999996 0.7931333333333332 -0.07753333333333333 1.1612666666666667 -0.23013333333333333 0.3681333333333333 -0.15253333333333333 0.7024666666666667 -0.37639999999999996 0.9838666666666667 -0.6583333333333333L48.29466666666666 45.54026666666667c0.5663333333333334 -0.5691999999999999 0.8838666666666667 -1.3398666666666665 0.8826 -2.1428666666666665 -0.0007999999999999999 -0.8029999999999999 -0.3204666666666667 -1.5732666666666666 -0.8884 -2.1407999999999996 -0.5679333333333333 -0.5679333333333333 -1.3377999999999999 -0.8876 -2.1407999999999996 -0.8887999999999999 -0.8029999999999999 -0.0008666666666666666 -1.5736666666666665 0.3163333333333333 -2.1432666666666664 0.8826L31.993799999999997 53.2602 5.82744 27.095066666666668c-0.5704333333333333 -0.5612666666666666 -1.3395266666666665 -0.8743333333333334 -2.139713333333333 -0.8710666666666667 -0.8002266666666666 0.0032666666666666664 -1.5667533333333332 0.3226 -2.13258 0.8884 -0.5658466666666666 0.5658666666666666 -0.8851733333333334 1.3323999999999998 -0.8884533333333333 2.1326 -0.003235333333333333 0.8001999999999999 0.30984 1.5693333333333332 0.87106 2.139733333333333L29.8492 59.695c0.2814 0.2823333333333333 0.6156666666666666 0.5058 0.9836666666666667 0.6583333333333333 0.36806666666666665 0.15259999999999999 0.7626 0.2305333333333333 1.1609333333333334 0.23013333333333333Z" stroke-width="0.6667"></path>
</svg>