<!DOCTYPE svg PUBLIC "-//W3C//DTD SVG 1.1//EN" "http://www.w3.org/Graphics/SVG/1.1/DTD/svg11.dtd">
<!-- Uploaded to: SVG Repo, www.svgrepo.com, Transformed by: SVG Repo Mixer Tools -->
<svg fill="#000000" version="1.1" id="Layer_1" xmlns="http://www.w3.org/2000/svg" xmlns:xlink="http://www.w3.org/1999/xlink" viewBox="0 0 512 512" xml:space="preserve" width="64px" height="64px">
<g id="SVGRepo_bgCarrier" stroke-width="0"/>
<g id="SVGRepo_tracerCarrier" stroke-linecap="round" stroke-linejoin="round"/>
<g id="SVGRepo_iconCarrier"> <g> <g> <polygon points="296.421,0 296.421,53.895 215.579,53.895 215.579,0 175.158,0 175.158,121.263 336.842,121.263 336.842,0 "/> </g> </g> <g> <g> <path d="M330.105,161.684H181.895c-44.648,0-80.842,36.194-80.842,80.842v80.842h47.158v-94.316h40.421v94.316h134.737v-94.316 h40.421v94.316h47.158v-80.842C410.947,197.879,374.753,161.684,330.105,161.684z M256,269.474 c-14.859,0-26.947-12.089-26.947-26.947c0-14.859,12.089-26.947,26.947-26.947s26.947,12.089,26.947,26.947 C282.947,257.385,270.859,269.474,256,269.474z"/> </g> </g> <g> <g> <rect x="188.632" y="363.789" width="47.158" height="148.211"/> </g> </g> <g> <g> <rect x="276.21" y="363.789" width="47.158" height="148.211"/> </g> </g> </g>
</svg>