<svg xmlns="http://www.w3.org/2000/svg" xmlns:xlink="http://www.w3.org/1999/xlink" width="300" zoomAndPan="magnify" viewBox="0 0 224.87999 225" height="300" preserveAspectRatio="xMidYMid meet" version="1.0"><defs><clipPath id="1069bd6f97"><path d="M 0 30.375 L 175.660156 30.375 L 175.660156 224.9375 L 0 224.9375 Z M 0 30.375 " clip-rule="nonzero"/></clipPath><clipPath id="6902305360"><path d="M 175.660156 224.941406 L 0 224.941406 L 0 30.375 Z M 175.660156 224.941406 " clip-rule="nonzero"/></clipPath><clipPath id="a4dda66cd4"><path d="M 0 0.375 L 175.660156 0.375 L 175.660156 194.9375 L 0 194.9375 Z M 0 0.375 " clip-rule="nonzero"/></clipPath><clipPath id="00a83d7146"><path d="M 175.660156 194.941406 L 0 194.941406 L 0 0.375 Z M 175.660156 194.941406 " clip-rule="nonzero"/></clipPath><clipPath id="a83d1582a9"><rect x="0" width="176" y="0" height="195"/></clipPath><clipPath id="a0774966f0"><path d="M 0 0.0625 L 175.300781 0.0625 L 175.300781 195 L 0 195 Z M 0 0.0625 " clip-rule="nonzero"/></clipPath><clipPath id="7c9b1275fb"><path d="M -0.0078125 194.652344 L -0.0078125 0.0625 L 175.300781 0.0625 Z M -0.0078125 194.652344 " clip-rule="nonzero"/></clipPath><clipPath id="7f52d3de06"><path d="M 0 0.0625 L 175.300781 0.0625 L 175.300781 194.835938 L 0 194.835938 Z M 0 0.0625 " clip-rule="nonzero"/></clipPath><clipPath id="bd1f99d8da"><path d="M -0.0078125 194.652344 L -0.0078125 0.0625 L 175.300781 0.0625 Z M -0.0078125 194.652344 " clip-rule="nonzero"/></clipPath><clipPath id="ad66de92f4"><rect x="0" width="176" y="0" height="195"/></clipPath><clipPath id="8025ae925e"><path d="M 137.621094 15.65625 L 224.761719 15.65625 L 224.761719 209.261719 L 137.621094 209.261719 Z M 137.621094 15.65625 " clip-rule="nonzero"/></clipPath><clipPath id="734a466f4d"><path d="M 137.621094 112.496094 L 224.878906 15.734375 L 224.878906 209.261719 Z M 137.621094 112.496094 " clip-rule="nonzero"/></clipPath><clipPath id="a1cc040bed"><path d="M 0.621094 0.65625 L 87.761719 0.65625 L 87.761719 194.261719 L 0.621094 194.261719 Z M 0.621094 0.65625 " clip-rule="nonzero"/></clipPath><clipPath id="b3fe4b01e1"><path d="M 0.621094 97.496094 L 87.878906 0.734375 L 87.878906 194.261719 Z M 0.621094 97.496094 " clip-rule="nonzero"/></clipPath><clipPath id="adf93c64c7"><rect x="0" width="88" y="0" height="195"/></clipPath></defs><g clip-path="url(#1069bd6f97)"><g clip-path="url(#6902305360)"><g transform="matrix(1, 0, 0, 1, 0, 30)"><g clip-path="url(#a83d1582a9)"><g clip-path="url(#a4dda66cd4)"><g clip-path="url(#00a83d7146)"><path fill="#f8f8f8" d="M 0 0.375 L 175.660156 0.375 L 175.660156 195.25 L 0 195.25 Z M 0 0.375 " fill-opacity="1" fill-rule="nonzero"/></g></g></g></g></g></g><g clip-path="url(#a0774966f0)"><g clip-path="url(#7c9b1275fb)"><g transform="matrix(1, 0, 0, 1, 0, -0.000000000000003234)"><g clip-path="url(#ad66de92f4)"><g clip-path="url(#7f52d3de06)"><g clip-path="url(#bd1f99d8da)"><path fill="#f8f8f8" d="M 175.300781 0.0625 L 175.300781 194.542969 L -0.0078125 194.542969 L -0.0078125 0.0625 Z M 175.300781 0.0625 " fill-opacity="1" fill-rule="nonzero"/></g></g></g></g></g></g><g clip-path="url(#8025ae925e)"><g clip-path="url(#734a466f4d)"><g transform="matrix(1, 0, 0, 1, 137, 15)"><g clip-path="url(#adf93c64c7)"><g clip-path="url(#a1cc040bed)"><g clip-path="url(#b3fe4b01e1)"><path fill="#f8f8f8" d="M 0.621094 194.261719 L 0.621094 0.65625 L 87.878906 0.65625 L 87.878906 194.261719 Z M 0.621094 194.261719 " fill-opacity="1" fill-rule="nonzero"/></g></g></g></g></g></g></svg>